<?xml version="1.0" encoding="utf-8"?>
<svg xmlns="http://www.w3.org/2000/svg" viewBox="0 0 48 48" width="144" height="144">
  <path d="M16.5 5C14.368 5 12.520422 6.222 11.607422 8L37.5 8C38.879 8 40 9.121 40 10.5L40 36.392578C41.778 35.480578 43 33.632 43 31.5L43 10.5C43 7.468 40.532 5 37.5 5L16.5 5 z M 10.5 11C7.4802259 11 5 13.480226 5 16.5L5 37.5C5 40.519774 7.4802259 43 10.5 43L31.5 43C34.519774 43 37 40.519774 37 37.5L37 16.5C37 13.480226 34.519774 11 31.5 11L10.5 11 z M 10.5 14L31.5 14C32.898226 14 34 15.101774 34 16.5L34 37.5C34 38.898226 32.898226 40 31.5 40L10.5 40C9.1017741 40 8 38.898226 8 37.5L8 16.5C8 15.101774 9.1017741 14 10.5 14 z" fill="#FFFFFF" />
</svg>