<?xml version="1.0" encoding="utf-8"?>
<svg xmlns="http://www.w3.org/2000/svg" viewBox="0 0 24 24" width="480" height="480">
  <path d="M10.40625 2C6.105469 2 3 4.800781 3 11C3 14.398438 4.800781 20.5 2 22L4.3125 22C5.210938 20.601563 5.09375 18.6875 5.09375 18.6875C5.09375 18.6875 4 17.300781 4 16.5C4 15.101563 5.09375 14.3125 5.09375 14.3125C5.09375 14.3125 4.09375 13.300781 4.09375 11.5C4.09375 10 5.304688 9.3125 5.90625 9.3125C8.105469 9.3125 8.1875 11.90625 8.1875 11.90625L10.3125 11.90625C10.3125 11.90625 10.207031 9 12.90625 9C13.804688 9 15.40625 9.804688 15.40625 11.90625C15.40625 13.105469 15 13.8125 15 13.8125C15 13.8125 16.40625 14.511719 16.40625 15.8125C16.40625 17.113281 15.40625 18.09375 15.40625 18.09375L17 21.8125L22 21.8125C22 22.011719 19 20.800781 19 11C19 10.300781 19.207031 2 10.40625 2 Z M 13.78125 4C14.042969 4 14.34375 4.113281 14.59375 4.3125C15.09375 4.710938 15.386719 5.195313 15.1875 5.59375C14.988281 5.992188 14.3125 5.992188 13.8125 5.59375C13.3125 5.195313 12.886719 4.710938 13.1875 4.3125C13.289063 4.113281 13.519531 4 13.78125 4 Z M 6.09375 10.90625C5.59375 11.007813 5 11.398438 5 12.5C5 13.5 6.3125 14.40625 6.3125 14.40625C6.3125 14.40625 4.5 15.199219 4.5 16.5C4.5 17.199219 5.300781 17.992188 6 18.59375C6.699219 19.195313 7.707031 20.3125 8.90625 20.3125C10.707031 20.3125 12.199219 18.898438 13 18.5C13.800781 18 15.40625 17.195313 15.40625 16.09375C15.40625 14.792969 12.90625 14.40625 12.90625 14.40625C12.90625 14.40625 14.09375 13.988281 14.09375 12.6875C14.09375 11.789063 13.511719 11.09375 12.8125 11.09375C11.710938 11.09375 11.40625 12.085938 11.40625 12.6875C11.40625 13.289063 11.6875 13.90625 11.6875 13.90625C11.6875 13.90625 10.5 13 9 13C8.199219 13 7.3125 13.5 7.3125 13.5C7.3125 13.5 7.40625 13.09375 7.40625 12.59375C7.40625 12.09375 7.09375 10.90625 6.09375 10.90625 Z M 9.75 13.75C9.917969 13.746094 10.367188 13.851563 10.59375 14C10.792969 14.101563 10.695313 14.59375 10.59375 14.59375C10.394531 14.695313 9.6875 14.011719 9.6875 13.8125C9.664063 13.789063 9.695313 13.75 9.75 13.75 Z M 8.3125 13.8125C8.613281 13.8125 8.300781 14.292969 8 14.59375C7.898438 14.695313 7.5 14.3125 7.5 14.3125C7.5 14.113281 7.914063 13.8125 8.3125 13.8125 Z M 14.5 16C14.5 16 11.5 19 9 19C6.898438 19 5.09375 16.6875 5.09375 16.6875C5.09375 16.6875 7.101563 18 9 18C11.101563 18 14.5 16 14.5 16Z" fill="#714B67" />
</svg>