<?xml version="1.0" encoding="utf-8"?>
<svg xmlns="http://www.w3.org/2000/svg" viewBox="0 0 24 24" width="480" height="480">
  <path d="M11 2L11 7L8 7L12 11L16 7L13 7L13 2 Z M 4.46875 9L2.25 14.21875C2.089844 14.59375 2 14.996094 2 15.40625L2 20C2 21.101563 2.898438 22 4 22L20 22C21.101563 22 22 21.101563 22 20L22 15.40625C22 14.996094 21.910156 14.589844 21.75 14.21875L19.53125 9L17.34375 9L19.46875 14L4.53125 14L6.65625 9 Z M 18 16.5C18.828125 16.5 19.5 17.171875 19.5 18C19.5 18.828125 18.828125 19.5 18 19.5C17.171875 19.5 16.5 18.828125 16.5 18C16.5 17.171875 17.171875 16.5 18 16.5Z" fill="#714B67" />
</svg>