<?xml version="1.0" encoding="utf-8"?>
<svg xmlns="http://www.w3.org/2000/svg" viewBox="0 0 24 24" width="480" height="480">
  <path d="M19.09375 2.0019531C18.948812 1.9952031 18.8025 2.0040469 18.65625 2.0292969L12 3.1894531L12 11L21 11L21 4C21 3.408 20.740109 2.84975 20.287109 2.46875C19.947359 2.183 19.528562 2.0222031 19.09375 2.0019531 z M 10 3.5371094L4.65625 4.46875C3.69725 4.63675 3 5.4654531 3 6.4394531L3 11L10 11L10 3.5371094 z M 3 13L3 17.560547C3 18.534547 3.69725 19.36325 4.65625 19.53125L10 20.462891L10 13L3 13 z M 12 13L12 20.810547L18.65625 21.970703C18.77125 21.990703 18.886953 22 19.001953 22C19.468953 22 19.923109 21.835297 20.287109 21.529297C20.740109 21.148297 21 20.591 21 20L21 13L12 13 z" fill="#714B67" />
</svg>